<?xml version="1.0" encoding="UTF-8" standalone="no"?>
<svg width="60px" height="60px" viewBox="0 0 60 60" version="1.1" xmlns="http://www.w3.org/2000/svg" xmlns:xlink="http://www.w3.org/1999/xlink" xmlns:sketch="http://www.bohemiancoding.com/sketch/ns">
    <!-- Generator: Sketch 3.2.2 (9983) - http://www.bohemiancoding.com/sketch -->
    <title>Carrot</title>
    <desc>Created with Sketch.</desc>
    <defs></defs>
    <g id="stroked" stroke="none" stroke-width="1" fill="none" fill-rule="evenodd" sketch:type="MSPage">
        <g id="Kitchen" sketch:type="MSLayerGroup" transform="translate(-847.000000, 2.000000)" stroke="#f5a44d" stroke-width="2" stroke-linejoin="round">
            <g id="Carrot" transform="translate(846.000000, 0.000000)" sketch:type="MSShapeGroup">
                <path d="M27.4594026,5.46063795 C27.4594026,5.46063795 38.3831447,55.6876586 36.8350537,59.3706321 C35.2869628,63.0536055 19.9256809,62.9597038 18.0837515,59.3706321 C16.241822,55.7815603 27.4594026,5.46063795 27.4594026,5.46063795 Z" id="Triangle-23" stroke-linecap="round" transform="translate(27.432375, 33.779200) rotate(-135.000000) translate(-27.432375, -33.779200) "></path>
                <path d="M46.5520345,12.0905204 C46.5520345,12.0905204 51.9999996,12.1000693 52,0" id="Path-1361" stroke-linecap="round"></path>
                <path d="M48.0352542,13.5062251 C48.0352542,13.5062251 49.282875,10.4764904 57.4310888,10.4764905" id="Path-1362" stroke-linecap="round"></path>
                <path d="M34,16 L36,18" id="Line" stroke-linecap="square"></path>
                <path d="M29,23 L31,25" id="Line" stroke-linecap="square"></path>
                <path d="M21,33 L23,34" id="Line" stroke-linecap="square"></path>
                <path d="M33,36 L31,34" id="Line" stroke-linecap="square"></path>
                <path d="M22,44 L20,42" id="Line" stroke-linecap="square"></path>
                <path d="M42,30 L39,28" id="Line" stroke-linecap="square"></path>
            </g>
        </g>
    </g>
</svg>